<svg width="24" height="24" viewBox="0 0 24 24" fill="none" xmlns="http://www.w3.org/2000/svg">
<path d="M15.25 11.9951C15.25 12.1231 15.2302 12.2511 15.1905 12.3693C15.1509 12.4875 15.0816 12.5958 14.9825 12.6943L10.3948 17.244C10.2165 17.4212 9.98857 17.5 9.72104 17.5C9.45351 17.5 9.2157 17.4015 9.03735 17.2144C8.85899 17.0273 8.75991 16.8107 8.75991 16.5251C8.75991 16.2395 8.84909 16.013 9.03735 15.8357L12.9017 11.9951L9.00762 8.13474C8.82927 7.94763 8.75 7.72113 8.75 7.45524C8.75 7.18935 8.84908 6.96285 9.03735 6.77574C9.22561 6.58863 9.45351 6.5 9.73094 6.5C10.0084 6.5 10.2462 6.58863 10.4245 6.77574L14.9825 11.3057C15.0816 11.4042 15.1509 11.5125 15.1905 11.6307C15.2302 11.7489 15.25 11.8671 15.25 12.0049L15.25 11.9951Z" fill="#757575"/>
</svg>
