<svg width="10" height="16" viewBox="0 0 10 16" fill="none" xmlns="http://www.w3.org/2000/svg">
<path d="M9.26174 0.400169C9.47334 0.608722 9.58337 0.858987 9.58337 1.14262C9.58337 1.42625 9.47334 1.67651 9.26174 1.88507L3.05752 7.99984L9.28713 14.1229C9.4818 14.3148 9.58337 14.5651 9.58337 14.8571C9.58337 15.149 9.47334 15.391 9.26174 15.5995C9.05013 15.8081 8.79621 15.9165 8.50843 15.9165C8.22065 15.9165 7.96672 15.8081 7.75512 15.5995L0.645237 8.5671C0.560596 8.48368 0.501347 8.39192 0.46749 8.29181C0.433634 8.19171 0.416706 8.0916 0.416706 7.97481C0.416706 7.85802 0.433634 7.75792 0.46749 7.65781C0.501347 7.55771 0.560596 7.46594 0.645237 7.38252L7.78051 0.375144C7.97519 0.183275 8.22065 0.0831701 8.50843 0.08317C8.79621 0.08317 9.05013 0.191616 9.26174 0.400169Z" fill="#5D89A2"/>
</svg>
