<svg width="6" height="10" viewBox="0 0 6 10" fill="none" xmlns="http://www.w3.org/2000/svg">
<path d="M5.70832 4.99588C5.70832 5.10256 5.69181 5.20925 5.65878 5.30772C5.62575 5.4062 5.56795 5.49647 5.48538 5.57854L1.66234 9.36994C1.51371 9.51766 1.3238 9.58331 1.10085 9.58331C0.877912 9.58331 0.679741 9.50125 0.531113 9.34532C0.382485 9.1894 0.299914 9.00886 0.299914 8.77087C0.299914 8.53288 0.374228 8.34413 0.531113 8.19641L3.75139 4.99588L0.506341 1.77893C0.357713 1.623 0.291656 1.43425 0.291656 1.21268C0.291656 0.991102 0.374227 0.802352 0.531112 0.646428C0.687998 0.490505 0.877911 0.416647 1.10911 0.416647C1.34031 0.416647 1.53848 0.490505 1.68711 0.646428L5.48538 4.42142C5.56795 4.50349 5.62575 4.59376 5.65878 4.69224C5.69181 4.79071 5.70832 4.88919 5.70832 5.00408L5.70832 4.99588Z" fill="#212121"/>
</svg>
