<svg width="12" height="8" viewBox="0 0 12 8" fill="none" xmlns="http://www.w3.org/2000/svg">
<path d="M6.00492 7.25C5.8769 7.25 5.74888 7.23018 5.63071 7.19055C5.51253 7.15091 5.40421 7.08155 5.30573 6.98247L0.756043 2.39482C0.578782 2.21646 0.5 1.98857 0.5 1.72104C0.5 1.45351 0.598478 1.2157 0.785586 1.03735C0.972695 0.858994 1.18935 0.759909 1.47493 0.759909C1.76052 0.759909 1.98702 0.849085 2.16428 1.03735L6.00492 4.90168L9.86526 1.00762C10.0524 0.829268 10.2789 0.75 10.5448 0.75C10.8107 0.75 11.0372 0.849085 11.2243 1.03735C11.4114 1.22561 11.5 1.45351 11.5 1.73095C11.5 2.00838 11.4114 2.24619 11.2243 2.42454L6.69427 6.98247C6.59579 7.08155 6.48747 7.15091 6.36929 7.19055C6.25112 7.23018 6.13295 7.25 5.99508 7.25H6.00492Z" fill="#424242"/>
</svg>
