<svg width="8" height="12" viewBox="0 0 8 12" fill="none" xmlns="http://www.w3.org/2000/svg">
<path d="M0.75 6.00492C0.75 5.8769 0.769817 5.74888 0.809451 5.63071C0.849085 5.51253 0.918445 5.40421 1.01753 5.30573L5.60518 0.756043C5.78354 0.578782 6.01143 0.5 6.27896 0.5C6.54649 0.5 6.7843 0.598478 6.96265 0.785586C7.14101 0.972695 7.24009 1.18935 7.24009 1.47493C7.24009 1.76052 7.15091 1.98702 6.96265 2.16428L3.09832 6.00492L6.99238 9.86526C7.17073 10.0524 7.25 10.2789 7.25 10.5448C7.25 10.8107 7.15091 11.0372 6.96265 11.2243C6.77439 11.4114 6.54649 11.5 6.26905 11.5C5.99162 11.5 5.75381 11.4114 5.57546 11.2243L1.01753 6.69427C0.918445 6.59579 0.849085 6.48747 0.809451 6.36929C0.769817 6.25112 0.75 6.13295 0.75 5.99508L0.75 6.00492Z" fill="#757575"/>
</svg>
