<svg width="20" height="20" viewBox="0 0 20 20" fill="none" xmlns="http://www.w3.org/2000/svg">
<path d="M10.9411 9.62838V5.79633C10.9411 5.54537 10.8591 5.33784 10.695 5.16892C10.5309 5.00483 10.3234 4.92278 10.0724 4.92278C9.82143 4.92278 9.6139 5.00483 9.44498 5.16892C9.27606 5.33301 9.19402 5.54537 9.19402 5.79633V9.98069C9.19402 10.1062 9.21332 10.222 9.25676 10.3282C9.30019 10.4344 9.35811 10.5405 9.44016 10.6419L12.751 14.0734C12.9344 14.2616 13.1515 14.3533 13.4025 14.3436C13.6535 14.334 13.8707 14.2471 14.0541 14.0734C14.2375 13.8996 14.3243 13.6873 14.3243 13.4315C14.3243 13.1757 14.2326 12.9585 14.0541 12.7799L10.9411 9.6332V9.62838ZM9.99517 20C8.61969 20 7.32626 19.7394 6.11004 19.2133C4.89382 18.6873 3.83687 17.973 2.92954 17.0705C2.0222 16.1631 1.30792 15.1062 0.78668 13.89C0.260618 12.6786 0 11.3803 0 10.0097C0 8.639 0.260618 7.34073 0.78668 6.12452C1.31274 4.9083 2.02703 3.85135 2.92954 2.94884C3.83205 2.04633 4.89382 1.32722 6.10521 0.796332C7.32143 0.265444 8.61969 0 9.99517 0C11.3707 0 12.6641 0.265444 13.8803 0.796332C15.0965 1.32722 16.1535 2.04151 17.056 2.94884C17.9585 3.85135 18.6776 4.91313 19.2085 6.12452C19.7394 7.34073 20.0048 8.63417 20.0048 10.0097C20.0048 11.3851 19.7394 12.6786 19.2085 13.8948C18.6776 15.111 17.9633 16.168 17.056 17.0705C16.1535 17.973 15.0917 18.6873 13.8803 19.2133C12.6641 19.7394 11.3707 20 9.99517 20ZM9.98552 18.0888C12.2056 18.0888 14.1071 17.3021 15.695 15.7239C17.2828 14.1458 18.0743 12.2442 18.0743 10.0145C18.0743 7.78475 17.2828 5.87838 15.695 4.30019C14.112 2.71718 12.2104 1.92568 9.99035 1.92568C7.77027 1.92568 5.8639 2.71718 4.28089 4.29537C2.69788 5.87355 1.90637 7.77992 1.90637 10.0048C1.90637 12.2297 2.69788 14.1458 4.27606 15.7191C5.85907 17.2973 7.76062 18.084 9.9807 18.084L9.98552 18.0888Z" fill="white"/>
</svg>
