<svg width="18" height="18" viewBox="0 0 18 18" fill="none" xmlns="http://www.w3.org/2000/svg">
<path d="M9.78459 8.69015V5.49678C9.78459 5.28764 9.71622 5.1147 9.57948 4.97394C9.44273 4.83719 9.26979 4.76882 9.06065 4.76882C8.85152 4.76882 8.67858 4.83719 8.53781 4.97394C8.39704 5.11068 8.32867 5.28764 8.32867 5.49678V8.98375C8.32867 9.08832 8.34476 9.18484 8.38096 9.27333C8.41715 9.36181 8.46542 9.45029 8.53379 9.53475L11.2928 12.3943C11.4456 12.5512 11.6266 12.6276 11.8358 12.6195C12.0449 12.6115 12.2259 12.5391 12.3787 12.3943C12.5315 12.2495 12.6039 12.0726 12.6039 11.8594C12.6039 11.6462 12.5275 11.4653 12.3787 11.3164L9.78459 8.69417V8.69015ZM8.9963 17.3332C7.85007 17.3332 6.7722 17.116 5.75869 16.6776C4.74518 16.2392 3.86439 15.644 3.10827 14.8919C2.35216 14.1358 1.75692 13.255 1.32256 12.2415C0.884174 11.232 0.666992 10.1501 0.666992 9.00788C0.666992 7.86567 0.884174 6.78378 1.32256 5.77027C1.76094 4.75676 2.35618 3.87596 3.10827 3.12387C3.86036 2.37178 4.74518 1.77252 5.75467 1.33011C6.76818 0.887707 7.85007 0.666504 8.9963 0.666504C10.1425 0.666504 11.2204 0.887707 12.2339 1.33011C13.2474 1.77252 14.1282 2.36776 14.8803 3.12387C15.6324 3.87596 16.2317 4.76078 16.6741 5.77027C17.1165 6.78378 17.3377 7.86165 17.3377 9.00788C17.3377 10.1541 17.1165 11.232 16.6741 12.2455C16.2317 13.259 15.6364 14.1398 14.8803 14.8919C14.1282 15.644 13.2434 16.2392 12.2339 16.6776C11.2204 17.116 10.1425 17.3332 8.9963 17.3332ZM8.98826 15.7405C10.8383 15.7405 12.4229 15.0849 13.7461 13.7698C15.0693 12.4546 15.7289 10.87 15.7289 9.0119C15.7289 7.1538 15.0693 5.56515 13.7461 4.25C12.427 2.93082 10.8423 2.27123 8.99228 2.27123C7.14222 2.27123 5.55358 2.93082 4.2344 4.24598C2.91522 5.56113 2.25563 7.14977 2.25563 9.00386C2.25563 10.8579 2.91522 12.4546 4.23038 13.7658C5.54955 15.0809 7.13417 15.7365 8.98424 15.7365L8.98826 15.7405Z" fill="#212121"/>
</svg>
