<svg width="28" height="28" viewBox="0 0 28 28" fill="none" xmlns="http://www.w3.org/2000/svg">
<g clip-path="url(#clip0_159_27011)">
<path d="M16.5546 18.6782L12.2496 22.9832C10.2429 24.9899 6.9996 25.0016 4.9696 23.0299C2.99793 20.9999 3.0096 17.7566 5.01627 15.7499L9.0646 11.7016C9.3446 11.4216 9.64793 11.1766 9.9746 10.9782C11.2579 10.1732 12.8096 9.98656 14.2213 10.4066C14.5596 10.5116 14.8979 10.6516 15.2129 10.8266C15.6096 11.0482 15.9946 11.3282 16.3329 11.6549C16.3563 11.6782 16.3796 11.7016 16.4029 11.7249C16.8929 12.2382 16.8696 13.0549 16.3679 13.5566L16.2746 13.6382C15.7496 14.1516 14.9096 14.1282 14.4079 13.5916C14.4196 13.6032 14.4429 13.6266 14.4546 13.6382L14.3613 13.5449C14.3613 13.5449 14.3963 13.5799 14.4079 13.5916C14.0579 13.2532 13.6146 13.0316 13.1363 12.9616C12.9963 12.9382 12.8679 12.9266 12.7279 12.9266C12.6696 12.9266 12.6229 12.9266 12.5646 12.9266C12.3779 12.9382 12.1913 12.9732 12.0163 13.0199C11.6313 13.1366 11.2813 13.3466 10.9896 13.6382L6.94127 17.6866C6.52127 18.1066 6.2646 18.6666 6.2296 19.2616C6.2296 19.3199 6.2296 19.3666 6.2296 19.4249C6.2296 20.0549 6.46293 20.6499 6.8946 21.1049C6.88293 21.0932 6.8596 21.0699 6.84793 21.0582L6.94127 21.1516C6.94127 21.1516 6.90627 21.1166 6.8946 21.1049C7.3496 21.5366 7.9446 21.7699 8.5746 21.7699C8.63293 21.7699 8.6796 21.7699 8.73793 21.7699C9.33293 21.7349 9.88127 21.4782 10.3129 21.0582L12.9846 18.3866C13.7196 18.6782 14.5013 18.8182 15.2946 18.8182C15.7146 18.8182 16.1346 18.7716 16.5313 18.6899L16.5546 18.6782Z" fill="#212121"/>
<path d="M22.9836 12.25L18.9352 16.2984C18.6552 16.5784 18.3519 16.8234 18.0252 17.0217C16.7419 17.8267 15.1902 18.0134 13.7786 17.5934C13.4402 17.4884 13.1019 17.3484 12.7869 17.1734C12.3902 16.9517 12.0052 16.6717 11.6669 16.345C11.6436 16.3217 11.6202 16.2984 11.5969 16.275C11.1069 15.7617 11.1302 14.945 11.6319 14.4434L11.7252 14.3617C12.2502 13.8484 13.0902 13.8717 13.5919 14.4084C13.5802 14.3967 13.5569 14.3734 13.5452 14.3617L13.6386 14.455C13.6386 14.455 13.6036 14.42 13.5919 14.4084C13.9419 14.7467 14.3852 14.9684 14.8636 15.0384C15.0036 15.0617 15.1319 15.0734 15.2719 15.0734C15.3302 15.0734 15.3769 15.0734 15.4352 15.0734C15.6219 15.0617 15.8086 15.0267 15.9836 14.98C16.3686 14.8634 16.7186 14.6534 17.0102 14.3617L21.0586 10.3134C21.4786 9.89337 21.7352 9.33337 21.7702 8.73837C21.7702 8.68003 21.7702 8.63337 21.7702 8.57503C21.7702 7.94503 21.5369 7.35003 21.1052 6.89503C21.1169 6.9067 21.1402 6.93003 21.1519 6.9417L21.0586 6.84837C21.0586 6.84837 21.0936 6.88337 21.1052 6.89503C20.6502 6.46337 20.0552 6.23003 19.4252 6.23003C19.3669 6.23003 19.3202 6.23003 19.2619 6.23003C18.6669 6.26503 18.1186 6.5217 17.6869 6.9417L15.0152 9.61337C14.2802 9.3217 13.4986 9.1817 12.7052 9.1817C12.2852 9.1817 11.8652 9.22837 11.4686 9.31003L15.7736 5.00503C17.7802 2.99837 21.0236 2.9867 23.0536 4.95837C25.0252 6.98837 25.0136 10.2317 23.0069 12.2384L22.9836 12.25Z" fill="#212121"/>
</g>
<defs>
<clipPath id="clip0_159_27011">
<rect width="21" height="21" fill="white" transform="translate(3.5 3.5)"/>
</clipPath>
</defs>
</svg>
