<svg width="18" height="18" viewBox="0 0 18 18" fill="none" xmlns="http://www.w3.org/2000/svg">
<path d="M16.2531 17.6932L10.5323 11.9659C10.0216 12.375 9.42906 12.7023 8.76504 12.9375C8.10102 13.1727 7.39614 13.2955 6.64018 13.2955C4.78093 13.2955 3.21793 12.6511 1.93076 11.3625C0.643587 10.0739 0 8.49886 0 6.64773C0 4.79659 0.653802 3.22159 1.94098 1.93295C3.22815 0.644318 4.79115 0 6.6504 0C8.50965 0 10.0726 0.644318 11.3598 1.93295C12.647 3.22159 13.2906 4.79659 13.2906 6.64773C13.2906 7.39432 13.168 8.11023 12.933 8.775C12.6981 9.43977 12.3712 10.033 11.9625 10.5443L17.714 16.3023C17.8978 16.4864 18 16.7216 18 16.9977C18 17.2739 17.8978 17.5091 17.6935 17.7136C17.5096 17.8977 17.2645 18 16.9784 18C16.6924 18 16.4472 17.908 16.2633 17.7136L16.2531 17.6932ZM6.6504 11.25C7.92736 11.25 9.01022 10.8 9.90919 9.91023C10.8082 9.02045 11.2474 7.92614 11.2474 6.64773C11.2474 5.36932 10.798 4.28523 9.90919 3.38523C9.02043 2.48523 7.92736 2.04545 6.6504 2.04545C5.37344 2.04545 4.29058 2.49545 3.3916 3.38523C2.49262 4.275 2.05335 5.36932 2.05335 6.64773C2.05335 7.92614 2.50284 9.01023 3.3916 9.91023C4.28036 10.8102 5.37344 11.25 6.6504 11.25Z" fill="#212121"/>
</svg>
