<svg width="24" height="24" viewBox="0 0 24 24" fill="none" xmlns="http://www.w3.org/2000/svg">
<path d="M7.99388 22C7.44444 22 6.97492 21.8 6.58532 21.41C6.19572 21.02 5.99592 20.55 5.99592 20C5.99592 19.45 6.19572 18.98 6.58532 18.59C6.97492 18.2 7.44444 18 7.99388 18C8.54332 18 9.01284 18.2 9.40244 18.59C9.79205 18.98 9.99184 19.45 9.99184 20C9.99184 20.55 9.79205 21.02 9.40244 21.41C9.01284 21.8 8.54332 22 7.99388 22ZM17.9837 22C17.4342 22 16.9647 21.8 16.5751 21.41C16.1855 21.02 15.9857 20.55 15.9857 20C15.9857 19.45 16.1855 18.98 16.5751 18.59C16.9647 18.2 17.4342 18 17.9837 18C18.5331 18 19.0026 18.2 19.3922 18.59C19.7818 18.98 19.9816 19.45 19.9816 20C19.9816 20.55 19.7818 21.02 19.3922 21.41C19.0026 21.8 18.5331 22 17.9837 22ZM7.14475 6L9.5423 11H16.5352L19.2824 6H7.14475ZM7.99388 17C7.24465 17 6.67523 16.67 6.29562 16.01C5.916 15.35 5.89602 14.7 6.24567 14.05L7.59429 11.6L3.99796 4H2.979C2.69929 4 2.45953 3.9 2.27971 3.71C2.0999 3.52 2 3.28 2 3C2 2.72 2.0999 2.48 2.2897 2.29C2.47951 2.1 2.71927 2 2.99898 2H4.62732C4.80713 2 4.98695 2.05 5.15678 2.15C5.3266 2.25 5.44648 2.39 5.53639 2.58L6.2157 4.01H20.9507C21.4002 4.01 21.7099 4.18 21.8797 4.51C22.0495 4.84 22.0395 5.19 21.8497 5.56L18.3034 11.96C18.1235 12.29 17.8738 12.55 17.5741 12.74C17.2744 12.93 16.9348 13.02 16.5452 13.02H9.10275L8.00387 15.02H19.0226C19.3023 15.02 19.5421 15.12 19.7219 15.31C19.9017 15.5 20.0016 15.74 20.0016 16.02C20.0016 16.3 19.9017 16.54 19.7119 16.73C19.5221 16.92 19.2824 17.02 19.0026 17.02H7.99388V17Z" fill="#424242"/>
</svg>
