<svg width="18" height="18" viewBox="0 0 18 18" fill="none" xmlns="http://www.w3.org/2000/svg">
<path d="M5.66153 17.3332C5.20366 17.3332 4.81239 17.1665 4.48773 16.8415C4.16306 16.5165 3.99656 16.1248 3.99656 15.6665C3.99656 15.2082 4.16306 14.8165 4.48773 14.4915C4.81239 14.1665 5.20366 13.9998 5.66153 13.9998C6.11939 13.9998 6.51066 14.1665 6.83533 14.4915C7.16 14.8165 7.32649 15.2082 7.32649 15.6665C7.32649 16.1248 7.16 16.5165 6.83533 16.8415C6.51066 17.1665 6.11939 17.3332 5.66153 17.3332ZM13.9864 17.3332C13.5285 17.3332 13.1372 17.1665 12.8126 16.8415C12.4879 16.5165 12.3214 16.1248 12.3214 15.6665C12.3214 15.2082 12.4879 14.8165 12.8126 14.4915C13.1372 14.1665 13.5285 13.9998 13.9864 13.9998C14.4442 13.9998 14.8355 14.1665 15.1602 14.4915C15.4848 14.8165 15.6513 15.2082 15.6513 15.6665C15.6513 16.1248 15.4848 16.5165 15.1602 16.8415C14.8355 17.1665 14.4442 17.3332 13.9864 17.3332ZM4.95392 3.99984L6.95188 8.1665H12.7793L15.0686 3.99984H4.95392ZM5.66153 13.1665C5.03716 13.1665 4.56265 12.8915 4.24631 12.3415C3.92996 11.7915 3.91331 11.2498 4.20468 10.7082L5.32853 8.6665L2.33159 2.33317H1.48246C1.24936 2.33317 1.04957 2.24984 0.899721 2.0915C0.749874 1.93317 0.666626 1.73317 0.666626 1.49984C0.666626 1.2665 0.749874 1.0665 0.908046 0.908171C1.06622 0.749837 1.26601 0.666504 1.49911 0.666504H2.85606C3.0059 0.666504 3.15575 0.708171 3.29727 0.791504C3.4388 0.874837 3.53869 0.991504 3.61362 1.14984L4.17971 2.3415H16.4588C16.8335 2.3415 17.0915 2.48317 17.233 2.75817C17.3746 3.03317 17.3662 3.32484 17.2081 3.63317L14.2528 8.9665C14.1029 9.2415 13.8948 9.45817 13.645 9.6165C13.3953 9.77484 13.1123 9.84984 12.7876 9.84984H6.58558L5.66985 11.5165H14.8521C15.0852 11.5165 15.285 11.5998 15.4349 11.7582C15.5847 11.9165 15.668 12.1165 15.668 12.3498C15.668 12.5832 15.5847 12.7832 15.4266 12.9415C15.2684 13.0998 15.0686 13.1832 14.8355 13.1832H5.66153V13.1665Z" fill="#212121"/>
</svg>
