<svg focusable="false" aria-hidden="true" viewBox="0 0 16 16" width="16" height="16" fill="#fff" xmlns="http://www.w3.org/2000/svg"><path fill-rule="evenodd" clip-rule="evenodd" d="M2.72139 2.72136C2.27991 3.16284 1.99999 3.81812 1.99999 4.66663V5.99996C1.99999 6.36815 1.70151 6.66663 1.33332 6.66663C0.965133 6.66663 0.666656 6.36815 0.666656 5.99996V4.66663C0.666656 3.51513 1.0534 2.50374 1.77859 1.77855C2.50377 1.05337 3.51516 0.666626 4.66666 0.666626H11.3333C12.4848 0.666626 13.4962 1.05337 14.2214 1.77855C14.9466 2.50374 15.3333 3.51513 15.3333 4.66663V5.99996C15.3333 6.36815 15.0348 6.66663 14.6667 6.66663C14.2985 6.66663 14 6.36815 14 5.99996V4.66663C14 3.81812 13.7201 3.16284 13.2786 2.72136C12.8371 2.27988 12.1818 1.99996 11.3333 1.99996H4.66666C3.81815 1.99996 3.16287 2.27988 2.72139 2.72136ZM9.15915 3.61167L11.2891 4.79647C11.6624 5.00166 11.9607 5.33565 12.1639 5.68135C12.3676 6.02787 12.5133 6.4503 12.5133 6.8733V9.13331C12.5133 9.55858 12.3644 9.98161 12.1606 10.3266C11.9569 10.6714 11.6592 11.0044 11.2907 11.2092C11.2906 11.2093 11.2908 11.2092 11.2907 11.2092L9.15738 12.3959L9.15492 12.3973C8.80233 12.5914 8.38297 12.67 8.00081 12.67C7.61935 12.67 7.19991 12.5917 6.84863 12.3955C6.84845 12.3954 6.84881 12.3956 6.84863 12.3955L4.71962 11.2113C4.71893 11.2109 4.71824 11.2105 4.71756 11.2102C4.34424 11.005 4.0459 10.671 3.84272 10.3253C3.63907 9.97874 3.49332 9.55631 3.49332 9.13331V6.8733C3.49332 6.44804 3.6422 6.02501 3.84599 5.68005C4.04971 5.33521 4.34739 5.00221 4.7159 4.79738L6.84585 3.61257C7.19782 3.41199 7.61811 3.33162 8.00081 3.33162C8.38474 3.33162 8.80557 3.41247 9.15915 3.61167ZM8.00081 4.66496C7.78337 4.66496 7.60549 4.71395 7.50498 4.7716L7.49741 4.77594L5.39917 5.94304L7.99979 7.44944L10.6025 5.94027L8.50527 4.77368C8.3993 4.71379 8.21776 4.66496 8.00081 4.66496ZM11.18 7.14668L8.66663 8.60404V11.1431L10.6426 10.044C10.7539 9.98218 10.8964 9.84511 11.0127 9.64838C11.1289 9.45168 11.18 9.26138 11.18 9.13331V7.14668ZM7.33329 11.1394V8.60424L4.82665 7.15228V9.13331C4.82665 9.26365 4.87756 9.45455 4.99224 9.6497C5.10702 9.845 5.24795 9.98041 5.36033 10.042L5.36405 10.044L7.33329 11.1394ZM1.33332 9.33329C1.70151 9.33329 1.99999 9.63177 1.99999 9.99996V11.3333C1.99999 12.1818 2.27991 12.8371 2.72139 13.2786C3.16287 13.72 3.81815 14 4.66666 14H11.3333C12.1818 14 12.8371 13.72 13.2786 13.2786C13.7201 12.8371 14 12.1818 14 11.3333V9.99996C14 9.63177 14.2985 9.33329 14.6667 9.33329C15.0348 9.33329 15.3333 9.63177 15.3333 9.99996V11.3333C15.3333 12.4848 14.9466 13.4962 14.2214 14.2214C13.4962 14.9465 12.4848 15.3333 11.3333 15.3333H4.66666C3.51516 15.3333 2.50377 14.9465 1.77859 14.2214C1.0534 13.4962 0.666656 12.4848 0.666656 11.3333V9.99996C0.666656 9.63177 0.965133 9.33329 1.33332 9.33329Z"></path></svg>