<svg width="15" height="14" viewBox="0 0 15 14" fill="none" xmlns="http://www.w3.org/2000/svg">
<path d="M7.48695 11.4892L4.05622 13.5249C3.90742 13.6226 3.74208 13.6633 3.57675 13.6471C3.41141 13.6308 3.26261 13.5819 3.1386 13.4842C3.0146 13.3865 2.9154 13.2725 2.84927 13.1259C2.78313 12.9793 2.7666 12.8246 2.80793 12.6455L3.71728 8.79392L0.691628 6.22078C0.551092 6.09863 0.468424 5.9602 0.435356 5.80549C0.402289 5.65078 0.410556 5.49606 0.468424 5.34949C0.526291 5.20292 0.608959 5.08078 0.716428 4.98306C0.823897 4.88535 0.980966 4.82835 1.1711 4.79578L5.18051 4.44563L6.7264 0.822067C6.79254 0.65921 6.9 0.537067 7.04881 0.455639C7.19761 0.37421 7.33815 0.333496 7.49522 0.333496C7.65229 0.333496 7.79282 0.37421 7.94162 0.455639C8.09043 0.537067 8.18963 0.65921 8.26403 0.822067L9.81819 4.44563L13.8276 4.79578C14.0177 4.82021 14.1748 4.88535 14.2823 4.98306C14.3897 5.08078 14.4724 5.20292 14.5303 5.34949C14.5881 5.49606 14.5964 5.65078 14.5633 5.80549C14.5303 5.9602 14.4393 6.09863 14.3071 6.22078L11.2649 8.8102L12.1742 12.6618C12.2156 12.8409 12.199 12.9956 12.1329 13.1422C12.0668 13.2888 11.9676 13.4028 11.8436 13.5005C11.7196 13.5982 11.5708 13.6471 11.4054 13.6633C11.2401 13.6796 11.083 13.6389 10.9259 13.5412L7.48695 11.4892Z" fill="#3D6881"/>
</svg>
