<svg width="21" height="20" viewBox="0 0 21 20" fill="none" xmlns="http://www.w3.org/2000/svg">
<path d="M10.8713 13.8451L10.488 13.6165L10.1042 13.8442L6.6735 15.8799L6.65882 15.8886L6.64455 15.898C6.64351 15.8987 6.64258 15.8993 6.64176 15.8997C6.61682 15.8968 6.60313 15.8929 6.59765 15.891C6.57384 15.8718 6.55983 15.8571 6.55142 15.8469C6.54512 15.8392 6.54044 15.8322 6.53654 15.8249C6.53698 15.8223 6.53759 15.8191 6.53845 15.8153C6.53854 15.8149 6.53863 15.8145 6.53873 15.8141L7.44721 11.9663L7.55262 11.5198L7.20316 11.2226L4.18154 8.65288C4.17455 8.64667 4.16988 8.64188 4.16697 8.63865C4.1658 8.63054 4.166 8.62619 4.16608 8.62508C4.16609 8.62493 4.1661 8.6248 4.16611 8.62469C4.17866 8.59295 4.19148 8.57184 4.20318 8.55708C4.21741 8.55235 4.23951 8.5462 4.27135 8.53988L8.24576 8.19279L8.69385 8.15366L8.87035 7.73994L10.4162 4.11637L10.4164 4.11642L10.4199 4.10766C10.4666 4.08336 10.4834 4.08344 10.4939 4.08349C10.4943 4.08349 10.4948 4.0835 10.4952 4.0835C10.4957 4.0835 10.4961 4.08349 10.4966 4.08349C10.5068 4.08344 10.5232 4.08336 10.5679 4.1063C10.5707 4.1111 10.5745 4.11807 10.579 4.12769L12.1289 7.74127L12.3058 8.15374L12.7529 8.19279L16.7436 8.5413C16.7662 8.54478 16.7819 8.54901 16.7915 8.55218C16.8042 8.56708 16.8186 8.58926 16.8326 8.62469C16.8326 8.6248 16.8326 8.62493 16.8326 8.62509C16.8327 8.62593 16.8328 8.62865 16.8323 8.6335C16.8277 8.63957 16.8196 8.64917 16.8066 8.66186L13.7788 11.2391L13.4296 11.5363L13.535 11.9825L14.4434 15.8304C14.4435 15.8308 14.4436 15.8312 14.4437 15.8316C14.4446 15.8354 14.4452 15.8386 14.4456 15.8412C14.4417 15.8485 14.437 15.8555 14.4307 15.8632C14.4223 15.8734 14.4083 15.8881 14.3845 15.9073C14.3792 15.9091 14.3661 15.9129 14.3426 15.9158C14.3381 15.9137 14.3313 15.9101 14.3221 15.9044L14.3222 15.9043L14.3102 15.8971L10.8713 13.8451Z" stroke="#3D6881" stroke-width="1.5"/>
</svg>
