<svg width="24" height="24" viewBox="0 0 24 24" fill="none" xmlns="http://www.w3.org/2000/svg">
<path d="M12 12.01C10.9 12.01 9.96 11.6205 9.17 10.8315C8.39 10.0524 7.99 9.10362 7.99 8.00499C7.99 6.90637 8.38 5.96754 9.17 5.17853C9.96 4.38951 10.9 4 12 4C13.1 4 14.04 4.38951 14.83 5.17853C15.62 5.96754 16.01 6.90637 16.01 8.00499C16.01 9.10362 15.62 10.0424 14.83 10.8315C14.05 11.6105 13.1 12.01 12 12.01ZM18 20H6C5.45 20 4.98 19.8002 4.59 19.4107C4.2 19.0212 4 18.5518 4 18.0025V17.2035C4 16.6342 4.15 16.1149 4.44 15.6454C4.73 15.176 5.12 14.8065 5.6 14.5568C6.63 14.0375 7.68 13.6579 8.75 13.3983C9.82 13.1386 10.9 13.0087 12 13.0087C13.1 13.0087 14.18 13.1386 15.25 13.3983C16.32 13.6579 17.37 14.0474 18.4 14.5568C18.88 14.8065 19.27 15.166 19.56 15.6454C19.85 16.1248 20 16.6442 20 17.2035V18.0025C20 18.5518 19.8 19.0212 19.41 19.4107C19.02 19.8002 18.55 20 18 20ZM6 18.0025H18V17.2035C18 17.0237 17.95 16.8539 17.86 16.7041C17.77 16.5543 17.65 16.4345 17.5 16.3546C16.6 15.9051 15.69 15.5655 14.77 15.3458C13.85 15.1261 12.93 15.0062 11.99 15.0062C11.05 15.0062 10.13 15.1161 9.21 15.3458C8.29 15.5755 7.38 15.9051 6.48 16.3546C6.33 16.4345 6.21 16.5543 6.12 16.7041C6.03 16.8539 5.98 17.0237 5.98 17.2035V18.0025H6ZM12 10.0125C12.55 10.0125 13.02 9.81273 13.41 9.42322C13.8 9.03371 14 8.56429 14 8.01498C14 7.46567 13.8 6.99625 13.41 6.60674C13.02 6.21723 12.55 6.01748 12 6.01748C11.45 6.01748 10.98 6.21723 10.59 6.60674C10.2 6.99625 10 7.46567 10 8.01498C10 8.56429 10.2 9.03371 10.59 9.42322C10.98 9.81273 11.45 10.0125 12 10.0125Z" fill="#424242"/>
</svg>
